<mxfile host="app.diagrams.net" modified="2023-08-21T13:47:26.337Z" agent="Mozilla/5.0 (Windows NT 10.0; Win64; x64; rv:109.0) Gecko/20100101 Firefox/116.0" etag="IeDlao04I8WuwXlhxZGC" version="21.6.6" type="github">
  <diagram name="Page-1" id="OjFlaD-svPvLdeRlhjTE">
    <mxGraphModel dx="2049" dy="1106" grid="1" gridSize="10" guides="1" tooltips="1" connect="1" arrows="1" fold="1" page="1" pageScale="1" pageWidth="1100" pageHeight="850" math="0" shadow="0">
      <root>
        <mxCell id="0" />
        <mxCell id="1" parent="0" />
        <mxCell id="mIVm1Yfa7Q4VCNWY9kk1-1" value="" style="whiteSpace=wrap;html=1;fillColor=none;strokeWidth=2;" vertex="1" parent="1">
          <mxGeometry x="20" y="20" width="1060" height="810" as="geometry" />
        </mxCell>
        <mxCell id="mIVm1Yfa7Q4VCNWY9kk1-4" value="" style="rounded=1;whiteSpace=wrap;html=1;fillColor=none;strokeWidth=2;arcSize=6;" vertex="1" parent="1">
          <mxGeometry x="370" y="170" width="360" height="510" as="geometry" />
        </mxCell>
        <mxCell id="mIVm1Yfa7Q4VCNWY9kk1-2" value="Username" style="strokeWidth=1;shadow=0;dashed=0;align=center;html=1;shape=mxgraph.mockup.forms.pwField;strokeColor=#999999;mainText=;align=left;fontColor=#666666;fontSize=17;spacingLeft=3;" vertex="1" parent="1">
          <mxGeometry x="475" y="490" width="150" height="30" as="geometry" />
        </mxCell>
        <mxCell id="mIVm1Yfa7Q4VCNWY9kk1-3" value="Password" style="strokeWidth=1;shadow=0;dashed=0;align=center;html=1;shape=mxgraph.mockup.forms.pwField;strokeColor=#999999;mainText=;align=left;fontColor=#666666;fontSize=17;spacingLeft=3;" vertex="1" parent="1">
          <mxGeometry x="475" y="530" width="150" height="30" as="geometry" />
        </mxCell>
        <mxCell id="mIVm1Yfa7Q4VCNWY9kk1-5" value="Logo" style="ellipse;whiteSpace=wrap;html=1;aspect=fixed;" vertex="1" parent="1">
          <mxGeometry x="475" y="260" width="150" height="150" as="geometry" />
        </mxCell>
        <mxCell id="mIVm1Yfa7Q4VCNWY9kk1-6" value="Login" style="rounded=1;whiteSpace=wrap;html=1;" vertex="1" parent="1">
          <mxGeometry x="490" y="580" width="120" height="30" as="geometry" />
        </mxCell>
      </root>
    </mxGraphModel>
  </diagram>
</mxfile>
